<?xml version="1.0" encoding="UTF-8"?> <svg xmlns="http://www.w3.org/2000/svg" width="78.406" height="23.996" viewBox="0 0 78.406 23.996"><g id="SI-UK_-_Logo" data-name="SI-UK - Logo" transform="translate(0.57 0.388)"><path id="Path_24271" data-name="Path 24271" d="M349.22,65.02l8.773,7.232-8.773,7.271Z" transform="translate(-324.409 -60.662)" fill="#c8102e"></path><path id="Path_24272" data-name="Path 24272" d="M806.049,7.674h4.045c0,.328,0,.652.006.974s0,.655,0,.982v7.857c.131.036.174-.058.23-.115q.719-.738,1.434-1.48,3.906-4.039,7.811-8.08a.42.42,0,0,1,.329-.152c1.694.005,3.387,0,5.081,0,.053,0,.106.007.217.013L814.545,18.205,825.9,30.46a1.261,1.261,0,0,1-.179.029c-1.781,0-3.563,0-5.344.005a.366.366,0,0,1-.3-.155q-3.386-3.867-6.775-7.733L810.316,19.2a.644.644,0,0,0-.186-.15,10.19,10.19,0,0,0-.031,1.026c0,.351,0,.7,0,1.054v9.313c-.19.057-3.526.079-4.028.032-.052-.173-.075-22.252-.022-22.8Z" transform="translate(-748.063 -7.464)" fill="#c8102e"></path><path id="Path_24273" data-name="Path 24273" d="M515.841,7.84h4.071v8.265c0,2.029,0,4.058,0,6.087a6.62,6.62,0,0,0,.468,2.528,4.365,4.365,0,0,0,3.489,2.773,6.25,6.25,0,0,0,2.849-.113,4.41,4.41,0,0,0,3.157-3.211,7.367,7.367,0,0,0,.279-2.059q0-6.973,0-13.948V7.845h4.057c.006.065.017.126.017.188q0,7.153,0,14.307a9.085,9.085,0,0,1-1.045,4.357,8.273,8.273,0,0,1-5.076,4.1,10.734,10.734,0,0,1-4.1.391,9.435,9.435,0,0,1-3.807-1.125,8.114,8.114,0,0,1-4.122-5.524,9.8,9.8,0,0,1-.237-2.21V7.84Z" transform="translate(-478.939 -7.631)" fill="#c8102e"></path><path id="Path_24274" data-name="Path 24274" d="M-.569,20.345l2.913-2.724a1.36,1.36,0,0,0,.078.132,6.33,6.33,0,0,0,3.658,2.254,5.587,5.587,0,0,0,3.071-.144,3.542,3.542,0,0,0,1.4-.85,3.043,3.043,0,0,0,.881-2.627,2.512,2.512,0,0,0-.856-1.638A4.719,4.719,0,0,0,9.1,13.829c-.66-.26-1.332-.491-2-.719-.952-.324-1.913-.62-2.838-1.019a6.744,6.744,0,0,1-2.249-1.517A5.46,5.46,0,0,1,.471,7.2a7.783,7.783,0,0,1,.123-2.43A5.753,5.753,0,0,1,2.5,1.683,8.035,8.035,0,0,1,5.915-.028,10.853,10.853,0,0,1,9.43-.359a9.835,9.835,0,0,1,5.61,2.093c.123.1.241.208.386.335L12.76,5a.768.768,0,0,0-.07-.125A5.481,5.481,0,0,0,8.6,3.013a4.737,4.737,0,0,0-2.677.694A2.672,2.672,0,0,0,4.685,5.262,2.677,2.677,0,0,0,5.82,8.419a5.437,5.437,0,0,0,1.243.612c.907.308,1.822.591,2.724.911.714.253,1.422.525,2.118.826a6.694,6.694,0,0,1,1.655,1.048,5.375,5.375,0,0,1,2.007,3.912,7.661,7.661,0,0,1-.4,3.186,6.674,6.674,0,0,1-3.812,3.92,9.993,9.993,0,0,1-3.11.731,11.888,11.888,0,0,1-5.577-.877A8.257,8.257,0,0,1-.407,20.541c-.052-.058-.1-.12-.163-.2Z" transform="translate(0 0)" fill="#1c3564"></path><path id="Path_24275" data-name="Path 24275" d="M246.51,7.85h4.03c.051.171.075,22.3.025,22.779-.172.048-3.531.068-4.012.025l-.017-.017c-.005-.006-.014-.012-.014-.018q-.007-11.276-.011-22.551V7.851Z" transform="translate(-229.152 -7.64)" fill="#1c3564"></path></g></svg> 